<svg xmlns="http://www.w3.org/2000/svg" width="20" height="20" viewBox="0 0 16 16">
	<defs>
		<linearGradient id="gradient" x1=".25" y1="-.1" x2="0" y2=".5">
			<stop stop-color="#F7B535" offset="0%"/>
			<stop stop-color="#E61D72" offset="100%"/>
		</linearGradient>
	</defs>
	<circle cx="8" cy="8" r="8" fill="url(#gradient)"/>
	<path stroke-width=".1" stroke="#fff" fill="#fff" d="M8.17 9.73q-.31.36-.77.57-.45.2-1.05.2-.54 0-1-.17-.46-.18-.8-.5-.33-.34-.52-.8-.2-.45-.2-1 0-.56.2-1.01.2-.46.54-.78t.8-.5q.47-.17 1-.17.5 0 .97.18.49.17.78.51l-.76.77q-.16-.22-.42-.33-.26-.1-.53-.1-.3 0-.55.11-.24.1-.42.3-.18.2-.28.45-.1.26-.1.57 0 .32.1.59.1.26.27.45.18.19.43.3.24.1.53.1.34 0 .6-.13.24-.14.4-.35l.78.74zm3.85-.9q0 .43-.15.75-.16.31-.41.52-.26.2-.58.3-.32.1-.67.1-.31 0-.6-.08t-.54-.23q-.23-.15-.4-.37-.17-.23-.25-.5l1.02-.31q.07.24.27.4.2.16.48.16.28 0 .49-.17.21-.18.21-.51 0-.2-.09-.35-.08-.14-.22-.22-.13-.08-.3-.11-.18-.04-.35-.04-.25 0-.57.06-.32.05-.57.15L8.9 5.7h2.87v.95H9.9l-.04.74.23-.03.24-.01q.35 0 .66.09.3.1.53.28.23.19.37.47.13.27.13.64z" aria-label="C5"/>
</svg>
